<svg width="50" height="50" viewBox="0 0 50 50" fill="none" xmlns="http://www.w3.org/2000/svg">
<g clip-path="url(#clip0)">
<path d="M13.5416 39.5833H9.37492C8.79992 39.5833 8.33325 39.1167 8.33325 38.5417C8.33325 37.9667 8.79992 37.5 9.37492 37.5H13.5416C14.1166 37.5 14.5833 37.9667 14.5833 38.5417C14.5833 39.1167 14.1166 39.5833 13.5416 39.5833Z" fill="#696969"/>
<path d="M47.396 39.5832H44.7918C44.2168 39.5832 43.7501 39.1166 43.7501 38.5416C43.7501 37.9666 44.2168 37.4999 44.7918 37.4999H46.5314L47.9356 30.0166C47.9168 26.1874 44.646 22.9166 40.6251 22.9166H33.7856L30.471 37.4999H36.4585C37.0335 37.4999 37.5001 37.9666 37.5001 38.5416C37.5001 39.1166 37.0335 39.5832 36.4585 39.5832H29.1668C28.8501 39.5832 28.5501 39.4395 28.3522 39.1916C28.1543 38.9457 28.0793 38.6207 28.1501 38.3124L31.9376 21.6458C32.046 21.1687 32.4668 20.8333 32.9543 20.8333H40.6251C45.7939 20.8333 50.0001 25.0395 50.0001 30.2082L48.4189 38.7332C48.3272 39.227 47.8981 39.5832 47.396 39.5832Z" fill="#696969"/>
<path d="M40.6251 43.7499C37.7542 43.7499 35.4167 41.4145 35.4167 38.5416C35.4167 35.6687 37.7542 33.3333 40.6251 33.3333C43.4959 33.3333 45.8334 35.6687 45.8334 38.5416C45.8334 41.4145 43.4959 43.7499 40.6251 43.7499ZM40.6251 35.4166C38.9022 35.4166 37.5001 36.8187 37.5001 38.5416C37.5001 40.2645 38.9022 41.6666 40.6251 41.6666C42.348 41.6666 43.7501 40.2645 43.7501 38.5416C43.7501 36.8187 42.348 35.4166 40.6251 35.4166Z" fill="#696969"/>
<path d="M17.7083 43.7499C14.8375 43.7499 12.5 41.4145 12.5 38.5416C12.5 35.6687 14.8375 33.3333 17.7083 33.3333C20.5792 33.3333 22.9167 35.6687 22.9167 38.5416C22.9167 41.4145 20.5792 43.7499 17.7083 43.7499ZM17.7083 35.4166C15.9854 35.4166 14.5833 36.8187 14.5833 38.5416C14.5833 40.2645 15.9854 41.6666 17.7083 41.6666C19.4313 41.6666 20.8333 40.2645 20.8333 38.5416C20.8333 36.8187 19.4313 35.4166 17.7083 35.4166Z" fill="#696969"/>
<path d="M13.5417 20.8333H5.20841C4.63341 20.8333 4.16675 20.3667 4.16675 19.7917C4.16675 19.2167 4.63341 18.75 5.20841 18.75H13.5417C14.1167 18.75 14.5834 19.2167 14.5834 19.7917C14.5834 20.3667 14.1167 20.8333 13.5417 20.8333Z" fill="#696969"/>
<path d="M13.5416 27.0833H3.12492C2.54992 27.0833 2.08325 26.6167 2.08325 26.0417C2.08325 25.4667 2.54992 25 3.12492 25H13.5416C14.1166 25 14.5833 25.4667 14.5833 26.0417C14.5833 26.6167 14.1166 27.0833 13.5416 27.0833Z" fill="#696969"/>
<path d="M13.5417 33.3333H1.04167C0.466667 33.3333 0 32.8667 0 32.2917C0 31.7167 0.466667 31.25 1.04167 31.25H13.5417C14.1167 31.25 14.5833 31.7167 14.5833 32.2917C14.5833 32.8667 14.1167 33.3333 13.5417 33.3333Z" fill="#696969"/>
<path d="M29.1666 39.5832H21.8749C21.2999 39.5832 20.8333 39.1166 20.8333 38.5416C20.8333 37.9666 21.2999 37.4999 21.8749 37.4999H28.3353L33.0687 16.6666H9.37492C8.79992 16.6666 8.33325 16.1999 8.33325 15.6249C8.33325 15.0499 8.79992 14.5833 9.37492 14.5833H34.3749C34.6916 14.5833 34.9916 14.727 35.1895 14.9749C35.3874 15.2208 35.4624 15.5458 35.3916 15.8541L30.1832 38.7707C30.0749 39.2478 29.652 39.5832 29.1666 39.5832Z" fill="#696969"/>
</g>
<defs>
<clipPath id="clip0">
<rect width="50" height="50" fill="white"/>
</clipPath>
</defs>
</svg>
