<svg width="900" height="859" viewBox="0 0 900 859" fill="none" xmlns="http://www.w3.org/2000/svg">
<g clip-path="url(#clip0)">
<path d="M899.718 156.844C902.396 137.329 885.717 120.651 866.203 123.329C784.403 134.555 586.34 175.136 447.741 313.729C310.94 450.529 347.957 597.842 363.366 641.616C366.339 650.061 372.986 656.708 381.424 659.681C425.198 675.09 572.518 712.107 709.318 575.306C847.918 436.707 888.492 238.644 899.718 156.844Z" fill="url(#paint0_linear)"/>
<path d="M719.069 565.267C720.813 563.42 722.543 561.566 724.26 559.706C725.049 558.847 725.839 557.989 726.622 557.131C728.482 555.084 730.316 553.031 732.135 550.965C732.664 550.367 733.193 549.777 733.715 549.186C736.022 546.543 738.301 543.878 740.547 541.201C741.103 540.541 741.645 539.875 742.202 539.209C743.905 537.156 745.601 535.096 747.269 533.029C747.997 532.13 748.718 531.23 749.439 530.324C751.004 528.367 752.549 526.403 754.081 524.433C754.712 523.616 755.358 522.798 755.983 521.981C758.091 519.235 760.178 516.481 762.224 513.714C762.355 513.536 762.478 513.364 762.609 513.185C764.531 510.576 766.426 507.96 768.301 505.33C768.919 504.465 769.53 503.593 770.141 502.721C771.549 500.723 772.95 498.718 774.33 496.713C774.955 495.793 775.586 494.879 776.211 493.959C777.742 491.7 779.253 489.441 780.743 487.182C781.128 486.592 781.526 486.008 781.91 485.417C783.764 482.588 785.591 479.753 787.383 476.903C787.85 476.161 788.31 475.427 788.77 474.685C790.116 472.536 791.448 470.38 792.766 468.224C793.343 467.276 793.92 466.322 794.49 465.374C795.746 463.294 796.982 461.206 798.211 459.119C798.699 458.288 799.193 457.45 799.681 456.62C801.349 453.742 803.004 450.865 804.625 447.982C804.803 447.659 804.975 447.336 805.153 447.02C806.595 444.438 808.017 441.863 809.417 439.282C809.912 438.368 810.406 437.448 810.894 436.535C811.999 434.475 813.091 432.408 814.176 430.348C814.663 429.415 815.158 428.481 815.638 427.547C816.867 425.171 818.083 422.795 819.278 420.42C819.545 419.884 819.827 419.348 820.095 418.813C821.537 415.922 822.958 413.031 824.352 410.147C824.736 409.358 825.107 408.568 825.485 407.778C826.515 405.636 827.531 403.494 828.534 401.351C828.98 400.39 829.426 399.429 829.873 398.467C830.848 396.346 831.816 394.238 832.77 392.123C833.134 391.313 833.505 390.496 833.869 389.685C835.153 386.808 836.423 383.938 837.659 381.068C837.844 380.642 838.016 380.216 838.202 379.798C839.259 377.333 840.303 374.874 841.326 372.416C841.71 371.503 842.088 370.59 842.466 369.676C843.303 367.637 844.134 365.598 844.958 363.572C845.322 362.659 845.693 361.753 846.057 360.846C847.018 358.429 847.966 356.019 848.899 353.616C849.071 353.176 849.243 352.744 849.414 352.304C850.499 349.482 851.564 346.674 852.614 343.865C852.916 343.062 853.205 342.266 853.5 341.462C854.262 339.409 855.011 337.356 855.745 335.317C856.082 334.39 856.411 333.47 856.734 332.55C857.476 330.49 858.197 328.43 858.911 326.377C859.172 325.628 859.439 324.88 859.694 324.131C860.641 321.378 861.575 318.638 862.488 315.905C862.646 315.418 862.804 314.93 862.969 314.436C863.717 312.177 864.452 309.931 865.173 307.693C865.454 306.814 865.736 305.935 866.018 305.063C866.622 303.154 867.226 301.245 867.817 299.35C868.077 298.492 868.352 297.64 868.613 296.789C869.334 294.434 870.041 292.092 870.742 289.772C870.831 289.463 870.927 289.147 871.023 288.838C871.806 286.201 872.568 283.585 873.317 280.982C873.529 280.227 873.742 279.479 873.955 278.723C874.491 276.842 875.019 274.967 875.541 273.107C875.775 272.255 876.008 271.411 876.242 270.566C876.77 268.643 877.285 266.735 877.794 264.833C877.965 264.194 878.137 263.549 878.309 262.91C878.975 260.404 879.627 257.911 880.259 255.446C880.382 254.945 880.506 254.457 880.629 253.963C881.137 251.979 881.625 250.001 882.113 248.051C882.305 247.268 882.497 246.485 882.682 245.709C883.108 243.979 883.52 242.263 883.925 240.56C884.104 239.825 884.282 239.083 884.454 238.356C884.962 236.186 885.463 234.023 885.951 231.894C885.992 231.709 886.033 231.523 886.081 231.338C886.603 229.024 887.111 226.737 887.606 224.472C887.757 223.806 887.894 223.146 888.038 222.487C888.395 220.846 888.739 219.226 889.082 217.619C889.233 216.905 889.384 216.191 889.528 215.483C889.878 213.815 890.215 212.167 890.545 210.533C890.654 209.997 890.771 209.448 890.874 208.919C891.3 206.797 891.719 204.703 892.117 202.636C892.206 202.176 892.289 201.723 892.378 201.263C892.687 199.636 892.996 198.022 893.291 196.436C893.408 195.784 893.525 195.138 893.648 194.493C893.909 193.058 894.17 191.636 894.417 190.235C894.52 189.652 894.63 189.061 894.733 188.478C895.07 186.576 895.399 184.701 895.708 182.861C895.715 182.833 895.715 182.813 895.722 182.785C896.038 180.918 896.34 179.091 896.635 177.285C896.724 176.743 896.807 176.207 896.896 175.665C897.102 174.381 897.308 173.11 897.5 171.861C897.589 171.311 897.672 170.762 897.761 170.22C897.96 168.894 898.159 167.597 898.352 166.32C898.407 165.935 898.468 165.544 898.523 165.166C898.764 163.545 898.99 161.952 899.217 160.408C899.265 160.037 899.313 159.68 899.368 159.316C899.492 158.457 899.601 157.613 899.718 156.782C901.036 147.045 897.541 138.023 891.279 131.761L370.349 652.698C373.425 655.774 377.181 658.171 381.383 659.661C381.816 659.812 382.255 659.97 382.715 660.128C382.942 660.203 383.155 660.279 383.388 660.361C384.198 660.636 385.036 660.917 385.908 661.206C386.052 661.254 386.203 661.302 386.354 661.35C387.082 661.59 387.831 661.83 388.6 662.078C388.916 662.181 389.245 662.277 389.568 662.38C390.193 662.579 390.825 662.771 391.477 662.97C391.848 663.087 392.232 663.204 392.61 663.32C393.255 663.513 393.914 663.705 394.58 663.904C394.979 664.014 395.37 664.131 395.768 664.247C396.489 664.453 397.238 664.666 397.986 664.872C398.343 664.975 398.693 665.071 399.057 665.174C400.184 665.483 401.323 665.792 402.504 666.094C402.546 666.108 402.594 666.122 402.642 666.129C403.768 666.424 404.921 666.719 406.096 667.008C406.487 667.111 406.892 667.207 407.29 667.303C408.142 667.509 409 667.715 409.872 667.921C410.346 668.031 410.827 668.141 411.3 668.25C412.131 668.443 412.976 668.628 413.827 668.82C414.335 668.93 414.843 669.04 415.352 669.15C416.251 669.342 417.171 669.535 418.084 669.72C418.551 669.816 419.018 669.912 419.485 670.008C420.721 670.255 421.971 670.503 423.241 670.736C423.413 670.771 423.584 670.805 423.756 670.839C425.191 671.107 426.661 671.361 428.151 671.615C428.597 671.697 429.064 671.766 429.517 671.842C430.574 672.02 431.639 672.192 432.71 672.364C433.273 672.446 433.836 672.535 434.399 672.618C435.408 672.769 436.425 672.913 437.448 673.057C438.038 673.139 438.636 673.222 439.233 673.304C440.29 673.442 441.355 673.579 442.419 673.716C442.989 673.785 443.559 673.854 444.136 673.922C445.427 674.073 446.731 674.217 448.05 674.355C448.413 674.396 448.764 674.437 449.128 674.471C450.803 674.643 452.506 674.801 454.223 674.945C454.676 674.987 455.143 675.021 455.596 675.055C456.873 675.158 458.157 675.254 459.455 675.344C460.086 675.385 460.725 675.426 461.37 675.467C462.517 675.536 463.671 675.604 464.838 675.659C465.525 675.694 466.204 675.728 466.891 675.756C468.065 675.81 469.253 675.852 470.441 675.893C471.107 675.913 471.773 675.934 472.439 675.955C473.792 675.989 475.151 676.01 476.518 676.03C477.033 676.037 477.541 676.051 478.063 676.051C479.937 676.065 481.839 676.065 483.748 676.044C484.153 676.037 484.559 676.023 484.957 676.016C486.481 675.996 488.012 675.968 489.55 675.92C490.23 675.9 490.924 675.872 491.61 675.845C492.894 675.797 494.192 675.749 495.497 675.68C496.238 675.646 496.994 675.604 497.742 675.556C499.026 675.488 500.317 675.398 501.608 675.309C502.356 675.261 503.098 675.206 503.853 675.151C505.261 675.041 506.682 674.918 508.104 674.787C508.735 674.732 509.353 674.677 509.985 674.616C512.038 674.417 514.105 674.197 516.179 673.95C516.405 673.922 516.632 673.888 516.851 673.86C518.705 673.641 520.573 673.393 522.448 673.133C523.148 673.036 523.862 672.92 524.562 672.817C525.977 672.611 527.398 672.391 528.827 672.164C529.63 672.034 530.433 671.897 531.237 671.759C532.61 671.526 533.983 671.279 535.37 671.025C536.174 670.873 536.984 670.722 537.794 670.565C539.25 670.283 540.712 669.981 542.182 669.672C542.91 669.521 543.631 669.377 544.358 669.219C546.377 668.779 548.403 668.319 550.442 667.832C550.614 667.79 550.779 667.756 550.943 667.715C553.148 667.186 555.359 666.616 557.583 666.026C558.27 665.847 558.963 665.648 559.65 665.456C561.202 665.037 562.754 664.604 564.306 664.151C565.136 663.911 565.974 663.657 566.805 663.41C568.254 662.97 569.703 662.524 571.158 662.064C572.01 661.796 572.868 661.521 573.719 661.24C575.216 660.752 576.72 660.244 578.224 659.722C579.02 659.448 579.81 659.187 580.606 658.905C582.46 658.246 584.328 657.559 586.196 656.859C586.621 656.701 587.054 656.55 587.48 656.385C589.773 655.506 592.08 654.593 594.387 653.646C595.033 653.385 595.678 653.103 596.324 652.835C597.999 652.135 599.675 651.428 601.357 650.686C602.201 650.322 603.046 649.938 603.891 649.56C605.394 648.88 606.905 648.187 608.416 647.479C609.301 647.068 610.187 646.649 611.073 646.223C612.597 645.495 614.122 644.74 615.653 643.978C616.491 643.559 617.335 643.14 618.173 642.714C619.931 641.815 621.688 640.888 623.446 639.947C624.051 639.624 624.648 639.315 625.252 638.986C627.607 637.709 629.963 636.397 632.325 635.037C632.867 634.722 633.416 634.385 633.966 634.069C635.785 633.005 637.605 631.927 639.425 630.821C640.262 630.313 641.1 629.785 641.938 629.263C643.489 628.301 645.048 627.32 646.6 626.317C647.499 625.74 648.392 625.157 649.292 624.566C650.823 623.557 652.361 622.527 653.892 621.483C654.771 620.886 655.643 620.302 656.515 619.691C658.197 618.524 659.887 617.322 661.569 616.107C662.276 615.599 662.976 615.104 663.684 614.589C666.06 612.852 668.435 611.074 670.818 609.24C671.189 608.959 671.553 608.657 671.923 608.375C673.935 606.809 675.947 605.223 677.959 603.596C678.769 602.944 679.573 602.264 680.383 601.598C681.969 600.293 683.555 598.975 685.141 597.629C686.034 596.867 686.934 596.091 687.826 595.315C689.351 593.99 690.882 592.651 692.406 591.284C693.292 590.495 694.178 589.705 695.063 588.895C696.684 587.425 698.304 585.915 699.925 584.391C700.687 583.67 701.456 582.969 702.218 582.234C704.587 579.975 706.956 577.675 709.325 575.306C711.859 572.779 714.344 570.218 716.816 567.65C717.565 566.854 718.313 566.057 719.069 565.267Z" fill="url(#paint1_linear)"/>
<path d="M761.929 318.549C756.868 320.245 751.808 321.598 746.802 322.991C741.79 324.392 736.812 325.8 731.861 326.946C726.91 328.189 722.001 328.732 717.153 329.363C712.305 329.968 707.471 331.327 702.534 333.408C697.618 335.557 692.708 337.898 687.593 340.817C693.045 335.008 698.483 329.206 703.935 323.383L730.803 295.21C739.743 285.761 748.999 276.78 758.049 267.428C776.328 248.978 794.964 231.139 814.499 214.131L812.549 210.32L796.55 221.423L788.495 227.019C785.845 228.935 783.297 230.96 780.688 232.931C770.43 240.972 759.807 248.799 749.81 257.218C729.423 273.718 709.641 290.925 689.749 308.077C685.979 311.449 682.203 314.834 678.426 318.205C679.724 314.573 680.761 310.968 681.241 307.363C681.921 302.509 682.512 297.586 683.802 292.628C684.99 287.67 686.446 282.685 687.895 277.673C689.337 272.667 690.731 267.6 692.468 262.532C695.53 252.336 699.492 242.118 703.296 231.599L700.927 230.898C693.306 240.443 686.178 250.42 679.751 260.692C676.49 265.821 673.537 271.033 670.509 276.279C667.735 281.539 664.933 286.846 662.393 292.188C659.811 297.531 656.913 302.907 654.222 308.345C651.64 313.777 649.91 319.229 649.299 324.55C649.196 325.594 649.106 326.637 649.031 327.674C648.269 338.977 641.588 351.267 631.48 360.572L631.295 360.743C613.71 376.941 596.406 393.379 579.027 409.77C580.737 404.668 581.932 399.861 582.914 395.11C583.854 390.228 584.047 385.627 583.442 381.212C582.866 376.783 582.172 372.327 582.22 367.651C582.151 363.009 582.364 358.264 582.57 353.492C582.763 348.727 582.886 343.927 583.381 339.045C583.902 329.309 585.379 319.325 586.608 309.114L583.902 309.142C578.361 319.517 573.452 330.139 569.373 340.83C567.272 346.186 565.528 351.528 563.715 356.925C562.177 362.261 560.625 367.651 559.348 372.993C558.03 378.356 556.389 383.828 554.988 389.301C553.704 394.739 553.326 399.964 554.102 404.771C554.473 406.886 554.933 408.973 555.523 411.006C558.421 420.907 552.99 434.207 542.731 443.711C533.928 451.868 525.105 460.018 516.343 468.217C505.227 478.592 494.501 489.338 484.085 500.352C485.465 495.964 486.495 491.769 487.36 487.615C488.294 482.739 488.493 478.139 487.889 473.717C487.305 469.288 486.618 464.832 486.667 460.156C486.598 455.507 486.811 450.762 487.01 445.997C487.202 441.232 487.333 436.432 487.82 431.543C488.342 421.813 489.825 411.83 491.047 401.619L488.342 401.64C482.801 412.015 477.891 422.644 473.813 433.328C471.711 438.691 469.967 444.033 468.155 449.423C466.617 454.766 465.065 460.149 463.794 465.498C462.476 470.854 460.835 476.326 459.427 481.799C458.143 487.237 457.766 492.462 458.542 497.276C459.372 502.027 460.67 506.642 462.902 510.789C465.456 515.541 464.069 522.524 459.194 528.346C446.566 543.418 423.9 570.788 412.612 585.846C397.43 606.308 382.77 627.182 369.889 649.505C369.257 650.597 369.504 651.998 370.466 652.808C371.365 653.57 372.67 653.632 373.645 652.959C395.24 638.045 415.283 621.881 434.818 605.306C454.806 588.27 474.142 570.719 492.942 552.702C493.279 552.386 493.609 552.063 493.945 551.747C500.008 545.938 507.774 544.112 513.054 546.852C516.954 548.863 521.246 550.099 525.661 550.923C530.447 551.747 535.659 551.425 541.09 550.189C546.556 548.836 552.028 547.243 557.377 545.98C562.719 544.757 568.096 543.254 573.438 541.757C578.828 539.999 584.17 538.303 589.526 536.25C600.224 532.267 610.86 527.447 621.249 521.988L621.304 519.276C611.114 520.402 601.151 521.782 591.456 522.208C586.573 522.654 581.794 522.73 577.043 522.874C572.291 523.025 567.56 523.197 562.932 523.08C558.27 523.08 553.841 522.345 549.44 521.713C545.038 521.061 540.451 521.212 535.583 522.105C530.282 523.155 524.885 524.515 519.104 526.513C528.524 516.646 537.712 506.566 546.673 496.287C553.772 488.027 563.44 476.965 571.955 467.262C581.012 456.942 594.044 451.181 604.028 453.591C608.91 454.772 614.211 455.109 618.805 455.967C623.591 456.798 628.802 456.468 634.227 455.232C639.692 453.88 645.165 452.287 650.514 451.016C655.856 449.794 661.239 448.29 666.575 446.8C671.965 445.036 677.307 443.34 682.67 441.294C693.361 437.311 703.997 432.491 714.386 427.032L714.441 424.32C704.251 425.446 694.288 426.826 684.592 427.252C679.717 427.698 674.931 427.774 670.179 427.918C665.428 428.076 660.704 428.24 656.076 428.124C651.413 428.124 646.978 427.382 642.576 426.757C638.175 426.105 633.588 426.256 628.72 427.149C619.381 429.003 609.789 431.722 598.109 437.599C615.653 418.524 633.107 399.305 650.857 380.422L651.53 379.681C662.139 368.035 676.655 360.661 689.028 361.478C692.523 361.711 696.107 361.581 699.698 361.244C705.006 360.688 710.458 359.006 715.896 356.472C721.341 353.829 726.732 350.979 732.081 348.438C737.43 345.939 742.744 343.186 748.018 340.453C753.277 337.473 758.496 334.561 763.639 331.334C773.938 324.996 783.957 317.945 793.535 310.391L792.862 308.002C782.343 311.71 772.126 315.582 761.929 318.549Z" fill="url(#paint2_linear)"/>
<path d="M381.431 659.681C415.496 671.677 512.285 696.739 618.015 642.783L411.465 436.157C401.124 425.816 390.316 416.196 379.165 407.222C326.664 512.1 351.459 607.784 363.366 641.615C366.339 650.061 372.986 656.708 381.431 659.681Z" fill="url(#paint3_linear)"/>
<path d="M33.5767 286.324C15.5385 285.13 -1.14009 301.801 0.0615436 319.84C5.08779 395.446 29.7658 577.606 149.894 697.735C268.464 816.305 408.423 771.941 450.309 754.637C458.391 751.3 465.037 744.654 468.374 736.579C485.671 694.693 530.035 554.727 411.465 436.157C291.343 316.029 109.176 291.358 33.5767 286.324Z" fill="url(#paint4_linear)"/>
<path d="M402.745 427.725C401.138 426.222 399.532 424.725 397.904 423.248C397.156 422.569 396.407 421.889 395.659 421.216C393.874 419.616 392.075 418.044 390.269 416.478C389.747 416.032 389.232 415.572 388.71 415.125C386.396 413.148 384.061 411.198 381.72 409.275C381.136 408.801 380.553 408.341 379.969 407.868C378.17 406.412 376.357 404.97 374.538 403.549C373.748 402.924 372.952 402.313 372.155 401.701C370.432 400.376 368.701 399.065 366.964 397.767C366.243 397.225 365.529 396.682 364.808 396.153C362.384 394.368 359.953 392.603 357.502 390.873C357.351 390.77 357.193 390.66 357.042 390.557C354.735 388.93 352.414 387.337 350.086 385.764C349.317 385.243 348.541 384.734 347.772 384.22C346.001 383.038 344.222 381.864 342.444 380.711C341.627 380.182 340.81 379.66 339.999 379.138C337.994 377.861 335.989 376.598 333.971 375.355C333.449 375.032 332.934 374.703 332.405 374.387C329.892 372.842 327.358 371.331 324.825 369.841C324.165 369.457 323.506 369.079 322.84 368.694C320.924 367.582 319.002 366.483 317.079 365.399C316.235 364.925 315.383 364.451 314.539 363.984C312.678 362.947 310.81 361.931 308.942 360.922C308.201 360.523 307.452 360.118 306.711 359.72C304.136 358.354 301.561 357.001 298.979 355.683C298.691 355.538 298.402 355.394 298.114 355.25C295.807 354.076 293.493 352.922 291.179 351.782C290.355 351.384 289.538 350.986 288.714 350.588C286.86 349.695 285.006 348.809 283.152 347.937C282.314 347.546 281.477 347.148 280.639 346.763C278.503 345.767 276.368 344.799 274.232 343.838C273.745 343.625 273.264 343.398 272.784 343.186C270.181 342.025 267.586 340.899 264.983 339.787C264.269 339.485 263.555 339.182 262.848 338.887C260.912 338.07 258.982 337.26 257.046 336.47C256.181 336.113 255.315 335.763 254.443 335.413C252.534 334.644 250.626 333.882 248.724 333.133C247.989 332.845 247.254 332.556 246.519 332.268C243.917 331.259 241.322 330.27 238.726 329.308C238.342 329.164 237.964 329.027 237.579 328.883C235.348 328.059 233.123 327.249 230.898 326.459C230.074 326.164 229.243 325.875 228.413 325.58C226.572 324.935 224.725 324.289 222.878 323.664C222.054 323.383 221.23 323.094 220.406 322.82C218.216 322.078 216.032 321.357 213.856 320.643C213.457 320.513 213.059 320.382 212.668 320.252C210.107 319.428 207.552 318.617 205.005 317.828C204.27 317.601 203.549 317.381 202.814 317.162C200.954 316.585 199.086 316.022 197.232 315.473C196.394 315.225 195.557 314.978 194.719 314.731C192.838 314.182 190.97 313.639 189.102 313.111C188.422 312.918 187.736 312.719 187.056 312.534C184.55 311.826 182.05 311.14 179.565 310.474C179.118 310.357 178.672 310.24 178.226 310.117C176.166 309.574 174.12 309.032 172.08 308.51C171.277 308.304 170.48 308.105 169.677 307.906C167.933 307.459 166.196 307.027 164.465 306.608C163.689 306.416 162.907 306.223 162.124 306.031C159.982 305.516 157.846 305.008 155.717 304.514C155.436 304.445 155.148 304.376 154.866 304.315C152.456 303.758 150.066 303.216 147.691 302.694C146.997 302.543 146.31 302.392 145.624 302.241C143.907 301.87 142.191 301.499 140.488 301.142C139.712 300.977 138.936 300.82 138.16 300.655C136.402 300.291 134.651 299.941 132.907 299.59C132.323 299.474 131.733 299.35 131.149 299.24C128.856 298.78 126.576 298.341 124.317 297.922C123.857 297.833 123.411 297.75 122.958 297.668C121.138 297.331 119.332 297.002 117.533 296.679C116.819 296.549 116.105 296.425 115.391 296.301C113.805 296.02 112.232 295.745 110.667 295.484C109.994 295.368 109.314 295.251 108.648 295.141C106.65 294.811 104.672 294.482 102.715 294.173C102.544 294.145 102.372 294.118 102.2 294.09C100.079 293.754 97.9774 293.431 95.8969 293.122C95.2858 293.026 94.6815 292.944 94.0704 292.848C92.5667 292.628 91.0767 292.415 89.6004 292.202C88.9412 292.113 88.2889 292.017 87.6366 291.927C86.0985 291.715 84.581 291.509 83.0772 291.31C82.5829 291.241 82.0816 291.172 81.5941 291.11C79.644 290.849 77.7145 290.602 75.8125 290.369C75.3868 290.314 74.9748 290.266 74.5491 290.218C73.0522 290.032 71.5691 289.854 70.1065 289.682C69.5091 289.613 68.9117 289.545 68.3144 289.476C66.996 289.325 65.6845 289.181 64.3936 289.044C63.858 288.982 63.3087 288.927 62.7731 288.865C61.0222 288.68 59.2918 288.501 57.5958 288.329C57.5752 288.329 57.5478 288.323 57.5272 288.323C55.8037 288.151 54.1145 287.993 52.4529 287.835C51.9516 287.787 51.4572 287.746 50.956 287.698C49.7681 287.595 48.6008 287.485 47.4472 287.389C46.9391 287.348 46.431 287.299 45.9297 287.258C44.7144 287.155 43.5127 287.059 42.3317 286.97C41.9815 286.936 41.6176 286.908 41.2674 286.881C39.7705 286.764 38.3011 286.661 36.8729 286.558C36.5295 286.53 36.2 286.51 35.8635 286.482C35.067 286.427 34.2979 286.379 33.522 286.324C24.5201 285.748 15.8684 289.607 9.60617 295.869L461.124 747.386C464.2 744.31 466.685 740.643 468.354 736.62C468.526 736.208 468.697 735.782 468.876 735.349C468.965 735.137 469.054 734.924 469.144 734.704C469.453 733.928 469.775 733.132 470.098 732.301C470.153 732.163 470.208 732.012 470.263 731.875C470.538 731.175 470.812 730.467 471.094 729.733C471.21 729.431 471.327 729.115 471.437 728.806C471.664 728.208 471.89 727.604 472.117 726.986C472.247 726.629 472.385 726.265 472.515 725.901C472.742 725.283 472.968 724.658 473.195 724.02C473.325 723.649 473.463 723.278 473.593 722.894C473.84 722.2 474.081 721.493 474.328 720.779C474.445 720.435 474.561 720.106 474.678 719.756C475.042 718.691 475.406 717.6 475.77 716.487C475.784 716.439 475.797 716.398 475.811 716.357C476.161 715.286 476.511 714.187 476.862 713.075C476.978 712.697 477.095 712.312 477.212 711.935C477.466 711.125 477.713 710.314 477.96 709.483C478.098 709.037 478.228 708.584 478.365 708.124C478.599 707.334 478.832 706.538 479.059 705.734C479.203 705.254 479.34 704.773 479.478 704.286C479.718 703.427 479.951 702.562 480.192 701.69C480.309 701.251 480.432 700.811 480.556 700.365C480.865 699.198 481.174 698.016 481.483 696.815C481.524 696.65 481.565 696.492 481.606 696.334C481.956 694.968 482.293 693.581 482.629 692.18C482.732 691.754 482.829 691.315 482.932 690.882C483.172 689.887 483.398 688.884 483.632 687.868C483.749 687.339 483.865 686.81 483.982 686.275C484.188 685.327 484.394 684.373 484.593 683.405C484.71 682.842 484.827 682.279 484.943 681.716C485.149 680.727 485.342 679.724 485.541 678.715C485.644 678.179 485.747 677.644 485.85 677.108C486.076 675.886 486.296 674.657 486.516 673.421C486.578 673.078 486.639 672.748 486.694 672.405C486.969 670.832 487.23 669.232 487.477 667.619C487.546 667.193 487.608 666.76 487.669 666.335C487.855 665.133 488.026 663.931 488.198 662.709C488.28 662.119 488.356 661.514 488.438 660.917C488.583 659.839 488.72 658.754 488.85 657.662C488.933 657.024 489.008 656.385 489.084 655.74C489.207 654.641 489.324 653.536 489.441 652.423C489.51 651.798 489.571 651.174 489.633 650.549C489.757 649.285 489.867 648.015 489.977 646.738C490.018 646.257 490.059 645.776 490.1 645.296C490.237 643.538 490.361 641.773 490.471 639.988C490.491 639.61 490.505 639.233 490.533 638.862C490.608 637.441 490.684 636.019 490.746 634.584C490.766 633.946 490.787 633.307 490.807 632.668C490.855 631.467 490.89 630.265 490.917 629.05C490.931 628.356 490.938 627.663 490.952 626.962C490.972 625.768 490.979 624.566 490.979 623.364C490.979 622.671 490.986 621.977 490.979 621.284C490.972 619.979 490.945 618.661 490.924 617.342C490.91 616.759 490.903 616.175 490.89 615.592C490.835 613.69 490.766 611.781 490.677 609.858C490.663 609.652 490.649 609.439 490.643 609.233C490.553 607.517 490.45 605.793 490.327 604.063C490.285 603.41 490.231 602.758 490.176 602.106C490.079 600.794 489.97 599.483 489.846 598.171C489.777 597.43 489.702 596.688 489.633 595.947C489.503 594.683 489.365 593.413 489.221 592.143C489.132 591.401 489.043 590.653 488.953 589.911C488.789 588.565 488.603 587.219 488.411 585.874C488.322 585.207 488.232 584.541 488.129 583.869C487.855 582.015 487.56 580.154 487.244 578.286C487.216 578.128 487.196 577.977 487.168 577.826C486.818 575.807 486.44 573.775 486.035 571.742C485.912 571.111 485.774 570.479 485.644 569.847C485.349 568.433 485.053 567.011 484.731 565.59C484.559 564.835 484.38 564.073 484.202 563.31C483.893 561.992 483.57 560.667 483.241 559.335C483.041 558.559 482.849 557.783 482.643 557C482.286 555.634 481.908 554.267 481.524 552.894C481.325 552.173 481.126 551.452 480.92 550.731C480.425 549.042 479.91 547.346 479.382 545.65C479.258 545.258 479.148 544.867 479.025 544.483C478.358 542.395 477.658 540.308 476.93 538.213C476.731 537.63 476.511 537.046 476.305 536.463C475.763 534.945 475.207 533.428 474.63 531.903C474.348 531.141 474.046 530.379 473.744 529.617C473.215 528.257 472.673 526.891 472.11 525.531C471.78 524.735 471.451 523.931 471.114 523.135C470.531 521.761 469.933 520.388 469.322 519.008C468.986 518.253 468.656 517.497 468.313 516.742C467.592 515.163 466.837 513.583 466.081 512.004C465.82 511.462 465.573 510.926 465.305 510.384C464.275 508.276 463.204 506.161 462.092 504.046C461.831 503.558 461.556 503.071 461.295 502.577C460.43 500.949 459.544 499.322 458.631 497.695C458.205 496.953 457.773 496.205 457.347 495.456C456.544 494.076 455.74 492.689 454.91 491.302C454.429 490.505 453.941 489.702 453.447 488.905C452.609 487.539 451.751 486.179 450.879 484.813C450.385 484.044 449.89 483.268 449.382 482.492C448.407 480.995 447.398 479.498 446.375 478.008C445.949 477.384 445.537 476.766 445.097 476.141C443.635 474.04 442.131 471.932 440.586 469.837C440.346 469.515 440.085 469.185 439.845 468.862C438.519 467.091 437.173 465.312 435.786 463.548C435.23 462.834 434.653 462.126 434.084 461.419C432.971 460.025 431.845 458.631 430.698 457.244C430.046 456.455 429.38 455.672 428.721 454.889C427.588 453.55 426.434 452.218 425.26 450.886C424.58 450.11 423.901 449.334 423.207 448.565C421.944 447.151 420.639 445.736 419.328 444.322C418.703 443.656 418.098 442.989 417.467 442.323C415.517 440.264 413.525 438.21 411.479 436.157C409.282 433.96 407.057 431.811 404.826 429.675C404.132 429.023 403.439 428.378 402.745 427.725Z" fill="url(#paint5_linear)"/>
<path d="M175.328 404.153C176.571 408.767 177.491 413.402 178.459 417.982C179.441 422.562 180.423 427.121 181.158 431.667C181.988 436.205 182.167 440.751 182.435 445.235C182.675 449.719 183.623 454.134 185.236 458.611C186.912 463.053 188.772 467.482 191.155 472.055C186.095 467.358 181.041 462.662 175.973 457.965L151.46 434.763C143.241 427.052 135.475 419.005 127.345 411.191C111.346 395.357 95.938 379.145 81.3674 362.048L77.6801 364.121L86.9773 378.314L91.6602 385.462C93.2738 387.811 94.9973 390.049 96.659 392.349C103.484 401.392 110.076 410.786 117.272 419.554C131.314 437.483 146.056 454.807 160.744 472.227C163.641 475.516 166.546 478.819 169.443 482.121C166.141 481.153 162.845 480.425 159.508 480.212C155.017 479.904 150.465 479.677 145.926 478.805C141.38 478.029 136.821 477.006 132.241 475.983C127.661 474.973 123.026 474.005 118.412 472.721C109.101 470.545 99.8313 467.523 90.2595 464.674L89.4492 466.933C97.8469 473.415 106.684 479.402 115.844 484.717C120.417 487.422 125.079 489.832 129.776 492.304C134.507 494.543 139.272 496.802 144.086 498.821C148.899 500.874 153.726 503.222 158.622 505.371C163.525 507.417 168.496 508.667 173.419 508.88C174.387 508.907 175.355 508.928 176.317 508.921C186.816 508.88 197.843 514.304 205.856 523.114L206.007 523.279C219.953 538.612 234.139 553.663 248.284 568.797C243.635 567.54 239.227 566.744 234.86 566.139C230.363 565.59 226.085 565.714 221.917 566.572C217.749 567.41 213.547 568.35 209.18 568.618C204.84 568.989 200.425 569.106 195.996 569.236C191.56 569.373 187.083 569.579 182.558 569.442C173.508 569.607 164.287 568.893 154.838 568.426L154.681 570.946C163.998 575.43 173.584 579.309 183.293 582.399C188.155 583.999 193.023 585.276 197.939 586.608C202.821 587.686 207.745 588.778 212.647 589.609C217.564 590.481 222.555 591.648 227.575 592.596C232.56 593.433 237.414 593.44 241.953 592.397C243.951 591.909 245.929 591.339 247.865 590.653C257.3 587.288 269.357 591.47 277.542 600.41C284.566 608.086 291.584 615.777 298.656 623.406C307.596 633.094 316.914 642.384 326.5 651.379C322.497 650.384 318.645 649.697 314.834 649.168C310.336 648.619 306.058 648.743 301.89 649.601C297.723 650.439 293.513 651.379 289.153 651.647C284.814 652.018 280.398 652.135 275.963 652.265C271.527 652.409 267.057 652.609 262.525 652.471C253.482 652.636 244.26 651.922 234.812 651.455L234.654 653.975C243.965 658.466 253.557 662.338 263.267 665.428C268.121 667.035 272.996 668.305 277.906 669.637C282.788 670.715 287.711 671.807 292.621 672.638C297.53 673.517 302.529 674.677 307.548 675.625C312.533 676.463 317.388 676.47 321.927 675.426C326.417 674.327 330.819 672.81 334.836 670.454C339.436 667.756 345.863 668.58 350.972 672.748C364.204 683.528 388.236 702.857 401.536 712.388C419.623 725.194 438.135 737.492 458.109 748.025C459.084 748.547 460.403 748.224 461.227 747.263C462.002 746.377 462.147 745.155 461.584 744.289C449.1 725.125 435.347 707.499 421.181 690.374C406.611 672.851 391.518 655.966 375.952 639.624C375.677 639.336 375.403 639.04 375.128 638.752C370.109 633.479 368.921 626.351 371.825 621.243C373.968 617.473 375.41 613.381 376.474 609.206C377.566 604.681 377.607 599.84 376.817 594.855C375.918 589.842 374.798 584.844 373.968 579.927C373.185 575.025 372.141 570.108 371.104 565.219C369.813 560.303 368.591 555.435 367.033 550.573C364.025 540.85 360.235 531.251 355.833 521.912L353.3 522.043C353.677 531.477 354.302 540.685 354.055 549.708C354.144 554.233 353.897 558.689 353.718 563.111C353.54 567.533 353.382 571.941 352.963 576.267C352.654 580.621 351.672 584.809 350.793 588.957C349.894 593.104 349.729 597.375 350.23 601.865C350.862 606.741 351.768 611.685 353.252 616.951C344.668 608.814 335.873 600.911 326.878 593.234C319.64 587.158 309.959 578.87 301.472 571.564C292.442 563.798 287.938 552.022 290.849 542.539C292.271 537.904 292.943 532.933 294.049 528.594C295.141 524.069 295.182 519.228 294.392 514.243C293.493 509.23 292.374 504.231 291.55 499.322C290.76 494.412 289.716 489.496 288.679 484.614C287.395 479.698 286.166 474.822 284.608 469.961C281.6 460.245 277.817 450.639 273.408 441.3L270.882 441.431C271.252 450.865 271.877 460.073 271.63 469.096C271.719 473.621 271.479 478.077 271.294 482.499C271.122 486.928 270.957 491.329 270.545 495.655C270.236 500.008 269.254 504.197 268.368 508.344C267.469 512.499 267.304 516.763 267.812 521.253C268.918 529.843 270.82 538.619 275.523 549.131C258.893 534.025 242.118 519.015 225.673 503.71L225.027 503.126C214.858 494 208.946 480.94 210.539 469.343C210.985 466.061 211.102 462.724 211.027 459.393C210.862 454.477 209.66 449.499 207.655 444.596C205.547 439.687 203.247 434.846 201.235 430.026C199.258 425.198 197.04 420.426 194.842 415.682C192.412 410.978 190.043 406.295 187.372 401.708C182.139 392.521 176.227 383.643 169.814 375.204L167.541 375.987C170.302 385.558 173.241 394.842 175.328 404.153Z" fill="url(#paint6_linear)"/>
</g>
<defs>
<linearGradient id="paint0_linear" x1="500.027" y1="261.445" x2="761.604" y2="523.021" gradientUnits="userSpaceOnUse">
<stop stop-color="#E0B51A"/>
<stop offset="0.4564" stop-color="#5FC146"/>
<stop offset="1" stop-color="#39B54A"/>
</linearGradient>
<linearGradient id="paint1_linear" x1="752.16" y1="460.893" x2="514.398" y2="327.601" gradientUnits="userSpaceOnUse">
<stop stop-color="#39B54A" stop-opacity="0"/>
<stop offset="0.1072" stop-color="#2FAB48" stop-opacity="0.105882"/>
<stop offset="0.4553" stop-color="#159043" stop-opacity="0.454902"/>
<stop offset="0.7642" stop-color="#06803F" stop-opacity="0.764706"/>
<stop offset="1" stop-color="#007A3E"/>
</linearGradient>
<linearGradient id="paint2_linear" x1="558.447" y1="398.508" x2="624.811" y2="464.871" gradientUnits="userSpaceOnUse">
<stop stop-color="#E0B51A"/>
<stop offset="0.2394" stop-color="#32AD48"/>
<stop offset="0.6031" stop-color="#1D9844"/>
<stop offset="1" stop-color="#007A3E"/>
</linearGradient>
<linearGradient id="paint3_linear" x1="584.642" y1="738.163" x2="320.623" y2="474.144" gradientUnits="userSpaceOnUse">
<stop stop-color="#39B54A" stop-opacity="0"/>
<stop offset="0.1072" stop-color="#2FAB48" stop-opacity="0.105882"/>
<stop offset="0.4553" stop-color="#159043" stop-opacity="0.454902"/>
<stop offset="0.7642" stop-color="#06803F" stop-opacity="0.764706"/>
<stop offset="1" stop-color="#007A3E"/>
</linearGradient>
<linearGradient id="paint4_linear" x1="104.574" y1="652.415" x2="366.151" y2="390.839" gradientUnits="userSpaceOnUse">
<stop stop-color="#E0B51A"/>
<stop offset="0.4564" stop-color="#5FC146"/>
<stop offset="1" stop-color="#39B54A"/>
</linearGradient>
<linearGradient id="paint5_linear" x1="307.532" y1="403.792" x2="185.244" y2="643.744" gradientUnits="userSpaceOnUse">
<stop stop-color="#39B54A" stop-opacity="0"/>
<stop offset="0.1072" stop-color="#2FAB48" stop-opacity="0.105882"/>
<stop offset="0.4553" stop-color="#159043" stop-opacity="0.454902"/>
<stop offset="0.7642" stop-color="#06803F" stop-opacity="0.764706"/>
<stop offset="1" stop-color="#007A3E"/>
</linearGradient>
<linearGradient id="paint6_linear" x1="236.397" y1="588.755" x2="302.76" y2="522.392" gradientUnits="userSpaceOnUse">
<stop stop-color="#D4961C"/>
<stop offset="0.2394" stop-color="#32AD48"/>
<stop offset="0.6031" stop-color="#1D9844"/>
<stop offset="1" stop-color="#007A3E"/>
</linearGradient>
<clipPath id="clip0">
<rect width="900" height="900" fill="white"/>
</clipPath>
</defs>
</svg>
