<svg width="389" height="85" viewBox="0 0 389 85" fill="none" xmlns="http://www.w3.org/2000/svg">
<g clip-path="url(#clip0)">
<path d="M76.2193 40.8994L66.5139 37.5031C62.641 36.1473 58.3847 36.419 54.7151 38.2556C51.0462 40.0928 48.2777 43.3376 47.0422 47.2506L44.5028 55.2925L42.0027 57.1673V40.3731C41.9998 38.1349 43.1192 36.0436 44.983 34.8046L43.6882 32.8632C41.175 34.5352 39.6661 37.3544 39.6695 40.3731V42.6842L38.1611 41.1757L36.5114 42.8255L39.6695 45.9837V71.6127L37.3363 70.4461V68.0461C37.3357 62.1774 34.5143 56.666 29.7533 53.2343C24.9918 49.8032 18.8717 48.8696 13.3041 50.7261L7.80261 52.5598C7.32355 52.7176 7 53.1642 7 53.6684C7 54.1725 7.32355 54.6192 7.80261 54.777L9.05181 55.1934C15.0398 57.1843 20.6273 60.2229 25.5535 64.1673L35.4405 72.077C35.5072 72.1237 35.5795 72.163 35.6553 72.1938L35.6479 72.2092L39.6695 74.2218V77.0006H42.0027V60.0839L46.202 56.9337L46.1895 56.9177C46.2373 56.8898 46.2835 56.8591 46.3273 56.8255C53.7149 49.4614 63.3359 44.7555 73.6839 43.4447L75.9789 43.1581C76.5161 43.0904 76.9359 42.662 76.9934 42.1236C77.0509 41.5853 76.7302 41.0783 76.2193 40.8994Z" fill="#C08D40"/>
<path d="M51.8823 16.8822L51.3355 8.0963C51.3007 7.54372 50.8826 7.09141 50.3341 7.01337C49.7872 6.94045 49.2626 7.25775 49.0735 7.77672L45.3002 18.3371C43.8893 22.282 43.1681 26.4405 43.1693 30.6304V33.8353C43.1693 34.307 43.4535 34.7325 43.8893 34.9131C44.325 35.0931 44.8269 34.9934 45.1607 34.6602C49.8465 29.9724 52.2947 23.4982 51.8823 16.8822Z" fill="#E0B51A"/>
<path d="M24.425 22.4657L16.7059 19.8994C16.3072 19.7661 15.8674 19.8578 15.5547 20.1392C15.2426 20.4212 15.1058 20.849 15.1976 21.2598L16.4809 27.0487C18.5356 36.4942 26.9177 43.2145 36.5838 43.1672H37.3363C37.9805 43.1672 38.5029 42.6448 38.5029 42.0006C38.5103 33.1355 32.8368 25.2633 24.425 22.4657Z" fill="#E0B51A"/>
<path d="M30.1612 38.034C25.6907 35.2826 22.0263 31.3997 19.537 26.7781L15.8577 19.9421C15.3491 20.1615 15.0705 20.714 15.1975 21.2535L16.4809 27.0424C18.5333 36.4908 26.916 43.214 36.5838 43.1672H37.3363C37.6017 43.1627 37.8569 43.0664 38.0591 42.8944L30.1612 38.034Z" fill="#D5961C"/>
<path d="M55.0894 46.3169C52.6314 48.072 50.6884 50.4532 49.462 53.2132L48.9225 54.4266C55.9256 48.4235 64.5339 44.6045 73.6838 43.4424L75.9065 43.1672H64.924C61.3975 43.1661 57.9592 44.2678 55.0894 46.3169Z" fill="#D5961C"/>
<path d="M36.7809 72.7771L36.7575 72.649C34.4374 59.8863 22.8238 50.9585 9.8943 51.9987L9.35144 52.042L7.80261 52.5587C7.32355 52.7165 7 53.1631 7 53.6673C7 54.1714 7.32355 54.6181 7.80261 54.7753L9.05181 55.1923C15.0398 57.1838 20.6273 60.2224 25.5535 64.1673L35.4405 72.077C35.5072 72.1237 35.5795 72.163 35.6553 72.1938L35.6479 72.2092L36.7809 72.7771Z" fill="#D5961C"/>
</g>
<path d="M85 42.5C85 65.9721 65.9721 85 42.5 85C19.0279 85 0 65.9721 0 42.5C0 19.0279 19.0279 0 42.5 0C65.9721 0 85 19.0279 85 42.5ZM3.19266 42.5C3.19266 64.2088 20.7912 81.8073 42.5 81.8073C64.2088 81.8073 81.8073 64.2088 81.8073 42.5C81.8073 20.7912 64.2088 3.19266 42.5 3.19266C20.7912 3.19266 3.19266 20.7912 3.19266 42.5Z" fill="#83781B"/>
<path d="M125.152 26.112H116.752L115.096 30H111.88L119.44 13.2H122.512L130.096 30H126.832L125.152 26.112ZM124.12 23.664L120.952 16.32L117.808 23.664H124.12ZM132.233 13.2H135.353V27.36H144.137V30H132.233V13.2ZM148.437 15.84H142.869V13.2H157.125V15.84H151.557V30H148.437V15.84ZM159.467 13.2H162.587V30H159.467V13.2ZM182.059 13.2V30H179.491L170.227 18.624V30H167.131V13.2H169.699L178.963 24.576V13.2H182.059Z" fill="#83781B"/>
<path d="M200.442 24.072V30H197.322V24.12L190.721 13.2H194.058L198.978 21.384L203.946 13.2H207.018L200.442 24.072ZM218.949 26.112H210.549L208.893 30H205.677L213.237 13.2H216.309L223.893 30H220.629L218.949 26.112ZM217.917 23.664L214.749 16.32L211.605 23.664H217.917ZM232.941 13.2C234.397 13.2 235.661 13.44 236.733 13.92C237.821 14.4 238.653 15.088 239.229 15.984C239.805 16.88 240.093 17.944 240.093 19.176C240.093 20.392 239.805 21.456 239.229 22.368C238.653 23.264 237.821 23.952 236.733 24.432C235.661 24.912 234.397 25.152 232.941 25.152H229.149V30H226.029V13.2H232.941ZM232.797 22.512C234.157 22.512 235.189 22.224 235.893 21.648C236.597 21.072 236.949 20.248 236.949 19.176C236.949 18.104 236.597 17.28 235.893 16.704C235.189 16.128 234.157 15.84 232.797 15.84H229.149V22.512H232.797ZM254.201 30L250.769 25.08C250.625 25.096 250.409 25.104 250.121 25.104H246.329V30H243.209V13.2H250.121C251.577 13.2 252.841 13.44 253.913 13.92C255.001 14.4 255.833 15.088 256.409 15.984C256.985 16.88 257.273 17.944 257.273 19.176C257.273 20.44 256.961 21.528 256.337 22.44C255.729 23.352 254.849 24.032 253.697 24.48L257.561 30H254.201ZM254.129 19.176C254.129 18.104 253.777 17.28 253.073 16.704C252.369 16.128 251.337 15.84 249.977 15.84H246.329V22.536H249.977C251.337 22.536 252.369 22.248 253.073 21.672C253.777 21.08 254.129 20.248 254.129 19.176ZM271.66 26.112H263.26L261.604 30H258.388L265.948 13.2H269.02L276.604 30H273.34L271.66 26.112ZM270.628 23.664L267.46 16.32L264.316 23.664H270.628ZM284.524 22.968L281.86 25.704V30H278.74V13.2H281.86V21.816L290.164 13.2H293.668L286.612 20.712L294.1 30H290.452L284.524 22.968Z" fill="#C08D40"/>
<path d="M113.128 46.6H116.8C117.696 46.6 118.492 46.776 119.188 47.128C119.884 47.472 120.424 47.964 120.808 48.604C121.192 49.236 121.384 49.968 121.384 50.8C121.384 51.632 121.192 52.368 120.808 53.008C120.424 53.64 119.884 54.132 119.188 54.484C118.492 54.828 117.696 55 116.8 55H113.128V46.6ZM116.728 53.68C117.344 53.68 117.884 53.564 118.348 53.332C118.82 53.092 119.18 52.756 119.428 52.324C119.684 51.884 119.812 51.376 119.812 50.8C119.812 50.224 119.684 49.72 119.428 49.288C119.18 48.848 118.82 48.512 118.348 48.28C117.884 48.04 117.344 47.92 116.728 47.92H114.688V53.68H116.728ZM125.778 55.084C125.13 55.084 124.546 54.944 124.026 54.664C123.506 54.384 123.098 53.996 122.802 53.5C122.514 52.996 122.37 52.428 122.37 51.796C122.37 51.164 122.514 50.6 122.802 50.104C123.098 49.608 123.506 49.22 124.026 48.94C124.546 48.66 125.13 48.52 125.778 48.52C126.434 48.52 127.022 48.66 127.542 48.94C128.062 49.22 128.466 49.608 128.754 50.104C129.05 50.6 129.198 51.164 129.198 51.796C129.198 52.428 129.05 52.996 128.754 53.5C128.466 53.996 128.062 54.384 127.542 54.664C127.022 54.944 126.434 55.084 125.778 55.084ZM125.778 53.8C126.33 53.8 126.786 53.616 127.146 53.248C127.506 52.88 127.686 52.396 127.686 51.796C127.686 51.196 127.506 50.712 127.146 50.344C126.786 49.976 126.33 49.792 125.778 49.792C125.226 49.792 124.77 49.976 124.41 50.344C124.058 50.712 123.882 51.196 123.882 51.796C123.882 52.396 124.058 52.88 124.41 53.248C124.77 53.616 125.226 53.8 125.778 53.8ZM136.992 48.592V54.028C136.992 56.284 135.84 57.412 133.536 57.412C132.92 57.412 132.336 57.332 131.784 57.172C131.232 57.02 130.776 56.796 130.416 56.5L131.088 55.372C131.368 55.604 131.72 55.788 132.144 55.924C132.576 56.068 133.012 56.14 133.452 56.14C134.156 56.14 134.672 55.98 135 55.66C135.328 55.34 135.492 54.852 135.492 54.196V53.86C135.236 54.14 134.924 54.352 134.556 54.496C134.188 54.64 133.784 54.712 133.344 54.712C132.736 54.712 132.184 54.584 131.688 54.328C131.2 54.064 130.812 53.696 130.524 53.224C130.244 52.752 130.104 52.212 130.104 51.604C130.104 50.996 130.244 50.46 130.524 49.996C130.812 49.524 131.2 49.16 131.688 48.904C132.184 48.648 132.736 48.52 133.344 48.52C133.808 48.52 134.228 48.596 134.604 48.748C134.988 48.9 135.308 49.132 135.564 49.444V48.592H136.992ZM133.572 53.44C134.14 53.44 134.604 53.272 134.964 52.936C135.332 52.592 135.516 52.148 135.516 51.604C135.516 51.068 135.332 50.632 134.964 50.296C134.604 49.96 134.14 49.792 133.572 49.792C132.996 49.792 132.524 49.96 132.156 50.296C131.796 50.632 131.616 51.068 131.616 51.604C131.616 52.148 131.796 52.592 132.156 52.936C132.524 53.272 132.996 53.44 133.572 53.44ZM133.668 47.8C133.084 47.8 132.596 47.644 132.204 47.332C131.82 47.02 131.616 46.6 131.592 46.072H132.576C132.584 46.344 132.692 46.564 132.9 46.732C133.108 46.892 133.364 46.972 133.668 46.972C133.972 46.972 134.228 46.892 134.436 46.732C134.644 46.564 134.752 46.344 134.76 46.072H135.744C135.72 46.6 135.512 47.02 135.12 47.332C134.736 47.644 134.252 47.8 133.668 47.8ZM141.412 48.52C142.356 48.52 143.076 48.748 143.572 49.204C144.076 49.652 144.328 50.332 144.328 51.244V55H142.912V54.22C142.728 54.5 142.464 54.716 142.12 54.868C141.784 55.012 141.376 55.084 140.896 55.084C140.416 55.084 139.996 55.004 139.636 54.844C139.276 54.676 138.996 54.448 138.796 54.16C138.604 53.864 138.508 53.532 138.508 53.164C138.508 52.588 138.72 52.128 139.144 51.784C139.576 51.432 140.252 51.256 141.172 51.256H142.828V51.16C142.828 50.712 142.692 50.368 142.42 50.128C142.156 49.888 141.76 49.768 141.232 49.768C140.872 49.768 140.516 49.824 140.164 49.936C139.82 50.048 139.528 50.204 139.288 50.404L138.7 49.312C139.036 49.056 139.44 48.86 139.912 48.724C140.384 48.588 140.884 48.52 141.412 48.52ZM141.208 53.992C141.584 53.992 141.916 53.908 142.204 53.74C142.5 53.564 142.708 53.316 142.828 52.996V52.252H141.28C140.416 52.252 139.984 52.536 139.984 53.104C139.984 53.376 140.092 53.592 140.308 53.752C140.524 53.912 140.824 53.992 141.208 53.992ZM146.254 46.096H147.754V55H146.254V46.096ZM150.214 53.092C150.494 53.092 150.726 53.184 150.91 53.368C151.094 53.552 151.186 53.792 151.186 54.088C151.186 54.216 151.166 54.352 151.126 54.496C151.094 54.632 151.022 54.84 150.91 55.12L150.298 56.812H149.326L149.806 54.976C149.63 54.904 149.49 54.792 149.386 54.64C149.29 54.48 149.242 54.296 149.242 54.088C149.242 53.792 149.334 53.552 149.518 53.368C149.702 53.184 149.934 53.092 150.214 53.092ZM161.968 48.592L158.968 55.516C158.688 56.212 158.348 56.7 157.948 56.98C157.548 57.268 157.064 57.412 156.496 57.412C156.176 57.412 155.86 57.36 155.548 57.256C155.236 57.152 154.98 57.008 154.78 56.824L155.38 55.72C155.524 55.856 155.692 55.964 155.884 56.044C156.084 56.124 156.284 56.164 156.484 56.164C156.748 56.164 156.964 56.096 157.132 55.96C157.308 55.824 157.468 55.596 157.612 55.276L157.72 55.024L154.924 48.592H156.484L158.5 53.332L160.528 48.592H161.968ZM165.61 55.084C164.962 55.084 164.378 54.944 163.858 54.664C163.338 54.384 162.93 53.996 162.634 53.5C162.346 52.996 162.202 52.428 162.202 51.796C162.202 51.164 162.346 50.6 162.634 50.104C162.93 49.608 163.338 49.22 163.858 48.94C164.378 48.66 164.962 48.52 165.61 48.52C166.266 48.52 166.854 48.66 167.374 48.94C167.894 49.22 168.298 49.608 168.586 50.104C168.882 50.6 169.03 51.164 169.03 51.796C169.03 52.428 168.882 52.996 168.586 53.5C168.298 53.996 167.894 54.384 167.374 54.664C166.854 54.944 166.266 55.084 165.61 55.084ZM165.61 53.8C166.162 53.8 166.618 53.616 166.978 53.248C167.338 52.88 167.518 52.396 167.518 51.796C167.518 51.196 167.338 50.712 166.978 50.344C166.618 49.976 166.162 49.792 165.61 49.792C165.058 49.792 164.602 49.976 164.242 50.344C163.89 50.712 163.714 51.196 163.714 51.796C163.714 52.396 163.89 52.88 164.242 53.248C164.602 53.616 165.058 53.8 165.61 53.8ZM164.434 47.584C164.226 47.584 164.054 47.516 163.918 47.38C163.782 47.244 163.714 47.072 163.714 46.864C163.714 46.648 163.782 46.472 163.918 46.336C164.054 46.2 164.226 46.132 164.434 46.132C164.642 46.132 164.814 46.2 164.95 46.336C165.086 46.472 165.154 46.648 165.154 46.864C165.154 47.072 165.086 47.244 164.95 47.38C164.814 47.516 164.642 47.584 164.434 47.584ZM166.762 47.584C166.554 47.584 166.382 47.516 166.246 47.38C166.11 47.244 166.042 47.072 166.042 46.864C166.042 46.648 166.11 46.472 166.246 46.336C166.382 46.2 166.554 46.132 166.762 46.132C166.97 46.132 167.142 46.2 167.278 46.336C167.414 46.472 167.482 46.648 167.482 46.864C167.482 47.072 167.414 47.244 167.278 47.38C167.142 47.516 166.97 47.584 166.762 47.584ZM171.892 49.528C172.324 48.856 173.084 48.52 174.172 48.52V49.948C174.044 49.924 173.928 49.912 173.824 49.912C173.24 49.912 172.784 50.084 172.456 50.428C172.128 50.764 171.964 51.252 171.964 51.892V55H170.464V48.592H171.892V49.528ZM181.41 51.832C181.41 51.936 181.402 52.084 181.386 52.276H176.358C176.446 52.748 176.674 53.124 177.042 53.404C177.418 53.676 177.882 53.812 178.434 53.812C179.138 53.812 179.718 53.58 180.174 53.116L180.978 54.04C180.69 54.384 180.326 54.644 179.886 54.82C179.446 54.996 178.95 55.084 178.398 55.084C177.694 55.084 177.074 54.944 176.538 54.664C176.002 54.384 175.586 53.996 175.29 53.5C175.002 52.996 174.858 52.428 174.858 51.796C174.858 51.172 174.998 50.612 175.278 50.116C175.566 49.612 175.962 49.22 176.466 48.94C176.97 48.66 177.538 48.52 178.17 48.52C178.794 48.52 179.35 48.66 179.838 48.94C180.334 49.212 180.718 49.6 180.99 50.104C181.27 50.6 181.41 51.176 181.41 51.832ZM178.17 49.72C177.69 49.72 177.282 49.864 176.946 50.152C176.618 50.432 176.418 50.808 176.346 51.28H179.982C179.918 50.816 179.722 50.44 179.394 50.152C179.066 49.864 178.658 49.72 178.17 49.72ZM184.831 55.084C184.311 55.084 183.803 55.016 183.307 54.88C182.811 54.744 182.415 54.572 182.119 54.364L182.695 53.224C182.983 53.416 183.327 53.572 183.727 53.692C184.135 53.804 184.535 53.86 184.927 53.86C185.823 53.86 186.271 53.624 186.271 53.152C186.271 52.928 186.155 52.772 185.923 52.684C185.699 52.596 185.335 52.512 184.831 52.432C184.303 52.352 183.871 52.26 183.535 52.156C183.207 52.052 182.919 51.872 182.671 51.616C182.431 51.352 182.311 50.988 182.311 50.524C182.311 49.916 182.563 49.432 183.067 49.072C183.579 48.704 184.267 48.52 185.131 48.52C185.571 48.52 186.011 48.572 186.451 48.676C186.891 48.772 187.251 48.904 187.531 49.072L186.955 50.212C186.411 49.892 185.799 49.732 185.119 49.732C184.679 49.732 184.343 49.8 184.111 49.936C183.887 50.064 183.775 50.236 183.775 50.452C183.775 50.692 183.895 50.864 184.135 50.968C184.383 51.064 184.763 51.156 185.275 51.244C185.787 51.324 186.207 51.416 186.535 51.52C186.863 51.624 187.143 51.8 187.375 52.048C187.615 52.296 187.735 52.648 187.735 53.104C187.735 53.704 187.475 54.184 186.955 54.544C186.435 54.904 185.727 55.084 184.831 55.084ZM195.051 51.832C195.051 51.936 195.043 52.084 195.027 52.276H189.999C190.087 52.748 190.315 53.124 190.683 53.404C191.059 53.676 191.523 53.812 192.075 53.812C192.779 53.812 193.359 53.58 193.815 53.116L194.619 54.04C194.331 54.384 193.967 54.644 193.527 54.82C193.087 54.996 192.591 55.084 192.039 55.084C191.335 55.084 190.715 54.944 190.179 54.664C189.643 54.384 189.227 53.996 188.931 53.5C188.643 52.996 188.499 52.428 188.499 51.796C188.499 51.172 188.639 50.612 188.919 50.116C189.207 49.612 189.603 49.22 190.107 48.94C190.611 48.66 191.179 48.52 191.811 48.52C192.435 48.52 192.991 48.66 193.479 48.94C193.975 49.212 194.359 49.6 194.631 50.104C194.911 50.6 195.051 51.176 195.051 51.832ZM191.811 49.72C191.331 49.72 190.923 49.864 190.587 50.152C190.259 50.432 190.059 50.808 189.987 51.28H193.623C193.559 50.816 193.363 50.44 193.035 50.152C192.707 49.864 192.299 49.72 191.811 49.72ZM196.492 46.096H197.992V55H196.492V46.096ZM209.481 48.592V55H208.053V54.184C207.813 54.472 207.513 54.696 207.153 54.856C206.793 55.008 206.405 55.084 205.989 55.084C205.133 55.084 204.457 54.848 203.961 54.376C203.473 53.896 203.229 53.188 203.229 52.252V48.592H204.729V52.048C204.729 52.624 204.857 53.056 205.113 53.344C205.377 53.624 205.749 53.764 206.229 53.764C206.765 53.764 207.189 53.6 207.501 53.272C207.821 52.936 207.981 52.456 207.981 51.832V48.592H209.481ZM205.185 47.584C204.977 47.584 204.805 47.516 204.669 47.38C204.533 47.244 204.465 47.072 204.465 46.864C204.465 46.648 204.533 46.472 204.669 46.336C204.805 46.2 204.977 46.132 205.185 46.132C205.393 46.132 205.565 46.2 205.701 46.336C205.837 46.472 205.905 46.648 205.905 46.864C205.905 47.072 205.837 47.244 205.701 47.38C205.565 47.516 205.393 47.584 205.185 47.584ZM207.513 47.584C207.305 47.584 207.133 47.516 206.997 47.38C206.861 47.244 206.793 47.072 206.793 46.864C206.793 46.648 206.861 46.472 206.997 46.336C207.133 46.2 207.305 46.132 207.513 46.132C207.721 46.132 207.893 46.2 208.029 46.336C208.165 46.472 208.233 46.648 208.233 46.864C208.233 47.072 208.165 47.244 208.029 47.38C207.893 47.516 207.721 47.584 207.513 47.584ZM212.873 49.528C213.305 48.856 214.065 48.52 215.153 48.52V49.948C215.025 49.924 214.909 49.912 214.805 49.912C214.221 49.912 213.765 50.084 213.437 50.428C213.109 50.764 212.945 51.252 212.945 51.892V55H211.445V48.592H212.873V49.528ZM222.688 48.592V55H221.26V54.184C221.02 54.472 220.72 54.696 220.36 54.856C220 55.008 219.612 55.084 219.196 55.084C218.34 55.084 217.664 54.848 217.168 54.376C216.68 53.896 216.436 53.188 216.436 52.252V48.592H217.936V52.048C217.936 52.624 218.064 53.056 218.32 53.344C218.584 53.624 218.956 53.764 219.436 53.764C219.972 53.764 220.396 53.6 220.708 53.272C221.028 52.936 221.188 52.456 221.188 51.832V48.592H222.688ZM218.392 47.584C218.184 47.584 218.012 47.516 217.876 47.38C217.74 47.244 217.672 47.072 217.672 46.864C217.672 46.648 217.74 46.472 217.876 46.336C218.012 46.2 218.184 46.132 218.392 46.132C218.6 46.132 218.772 46.2 218.908 46.336C219.044 46.472 219.112 46.648 219.112 46.864C219.112 47.072 219.044 47.244 218.908 47.38C218.772 47.516 218.6 47.584 218.392 47.584ZM220.72 47.584C220.512 47.584 220.34 47.516 220.204 47.38C220.068 47.244 220 47.072 220 46.864C220 46.648 220.068 46.472 220.204 46.336C220.34 46.2 220.512 46.132 220.72 46.132C220.928 46.132 221.1 46.2 221.236 46.336C221.372 46.472 221.44 46.648 221.44 46.864C221.44 47.072 221.372 47.244 221.236 47.38C221.1 47.516 220.928 47.584 220.72 47.584ZM228.288 48.52C229.096 48.52 229.744 48.756 230.232 49.228C230.72 49.7 230.964 50.4 230.964 51.328V55H229.464V51.52C229.464 50.96 229.332 50.54 229.068 50.26C228.804 49.972 228.428 49.828 227.94 49.828C227.388 49.828 226.952 49.996 226.632 50.332C226.312 50.66 226.152 51.136 226.152 51.76V55H224.652V48.592H226.08V49.42C226.328 49.124 226.64 48.9 227.016 48.748C227.392 48.596 227.816 48.52 228.288 48.52ZM232.867 46.096H234.367V55H232.867V46.096ZM242.36 51.832C242.36 51.936 242.352 52.084 242.336 52.276H237.308C237.396 52.748 237.624 53.124 237.992 53.404C238.368 53.676 238.832 53.812 239.384 53.812C240.088 53.812 240.668 53.58 241.124 53.116L241.928 54.04C241.64 54.384 241.276 54.644 240.836 54.82C240.396 54.996 239.9 55.084 239.348 55.084C238.644 55.084 238.024 54.944 237.488 54.664C236.952 54.384 236.536 53.996 236.24 53.5C235.952 52.996 235.808 52.428 235.808 51.796C235.808 51.172 235.948 50.612 236.228 50.116C236.516 49.612 236.912 49.22 237.416 48.94C237.92 48.66 238.488 48.52 239.12 48.52C239.744 48.52 240.3 48.66 240.788 48.94C241.284 49.212 241.668 49.6 241.94 50.104C242.22 50.6 242.36 51.176 242.36 51.832ZM239.12 49.72C238.64 49.72 238.232 49.864 237.896 50.152C237.568 50.432 237.368 50.808 237.296 51.28H240.932C240.868 50.816 240.672 50.44 240.344 50.152C240.016 49.864 239.608 49.72 239.12 49.72ZM245.228 49.528C245.66 48.856 246.42 48.52 247.508 48.52V49.948C247.38 49.924 247.264 49.912 247.16 49.912C246.576 49.912 246.12 50.084 245.792 50.428C245.464 50.764 245.3 51.252 245.3 51.892V55H243.8V48.592H245.228V49.528Z" fill="#172815"/>
<defs>
<clipPath id="clip0">
<rect width="70" height="70" fill="white" transform="translate(7 7)"/>
</clipPath>
</defs>
</svg>
