<svg width="282" height="85" viewBox="0 0 282 85" fill="none" xmlns="http://www.w3.org/2000/svg">
<g clip-path="url(#clip0)">
<path d="M76.2193 40.8994L66.5139 37.5031C62.641 36.1473 58.3847 36.419 54.7151 38.2556C51.0462 40.0928 48.2777 43.3376 47.0422 47.2506L44.5028 55.2925L42.0027 57.1673V40.3731C41.9998 38.1349 43.1192 36.0436 44.983 34.8046L43.6882 32.8632C41.175 34.5352 39.6661 37.3544 39.6695 40.3731V42.6842L38.1611 41.1757L36.5114 42.8255L39.6695 45.9837V71.6127L37.3363 70.4461V68.0461C37.3357 62.1774 34.5143 56.666 29.7533 53.2343C24.9918 49.8032 18.8717 48.8696 13.3041 50.7261L7.80261 52.5598C7.32355 52.7176 7 53.1642 7 53.6684C7 54.1725 7.32355 54.6192 7.80261 54.777L9.05181 55.1934C15.0398 57.1843 20.6273 60.2229 25.5535 64.1673L35.4405 72.077C35.5072 72.1237 35.5795 72.163 35.6553 72.1938L35.6479 72.2092L39.6695 74.2218V77.0006H42.0027V60.0839L46.202 56.9337L46.1895 56.9177C46.2373 56.8898 46.2835 56.8591 46.3273 56.8255C53.7149 49.4614 63.3359 44.7555 73.6839 43.4447L75.9789 43.1581C76.5161 43.0904 76.9359 42.662 76.9934 42.1236C77.0509 41.5853 76.7302 41.0783 76.2193 40.8994Z" fill="#C08D40"/>
<path d="M51.8823 16.8822L51.3355 8.0963C51.3007 7.54372 50.8826 7.09141 50.3341 7.01337C49.7872 6.94045 49.2626 7.25775 49.0735 7.77672L45.3002 18.3371C43.8893 22.282 43.1681 26.4405 43.1693 30.6304V33.8353C43.1693 34.307 43.4535 34.7325 43.8893 34.9131C44.325 35.0931 44.8269 34.9934 45.1607 34.6602C49.8465 29.9724 52.2947 23.4982 51.8823 16.8822Z" fill="#E0B51A"/>
<path d="M24.425 22.4657L16.7059 19.8994C16.3072 19.7661 15.8674 19.8578 15.5547 20.1392C15.2426 20.4212 15.1058 20.849 15.1976 21.2598L16.4809 27.0487C18.5356 36.4942 26.9177 43.2145 36.5838 43.1672H37.3363C37.9805 43.1672 38.5029 42.6448 38.5029 42.0006C38.5103 33.1355 32.8368 25.2633 24.425 22.4657Z" fill="#E0B51A"/>
<path d="M30.1612 38.034C25.6907 35.2826 22.0263 31.3997 19.537 26.7781L15.8577 19.9421C15.3491 20.1615 15.0705 20.714 15.1975 21.2535L16.4809 27.0424C18.5333 36.4908 26.916 43.214 36.5838 43.1672H37.3363C37.6017 43.1627 37.8569 43.0664 38.0591 42.8944L30.1612 38.034Z" fill="#D5961C"/>
<path d="M55.0894 46.3169C52.6314 48.072 50.6884 50.4532 49.462 53.2132L48.9225 54.4266C55.9256 48.4235 64.5339 44.6045 73.6838 43.4424L75.9065 43.1672H64.924C61.3975 43.1661 57.9592 44.2678 55.0894 46.3169Z" fill="#D5961C"/>
<path d="M36.7809 72.7771L36.7575 72.649C34.4374 59.8863 22.8238 50.9585 9.8943 51.9987L9.35144 52.042L7.80261 52.5587C7.32355 52.7165 7 53.1631 7 53.6673C7 54.1714 7.32355 54.6181 7.80261 54.7753L9.05181 55.1923C15.0398 57.1838 20.6273 60.2224 25.5535 64.1673L35.4405 72.077C35.5072 72.1237 35.5795 72.163 35.6553 72.1938L35.6479 72.2092L36.7809 72.7771Z" fill="#D5961C"/>
</g>
<path d="M85 42.5C85 65.9721 65.9721 85 42.5 85C19.0279 85 0 65.9721 0 42.5C0 19.0279 19.0279 0 42.5 0C65.9721 0 85 19.0279 85 42.5ZM3.19266 42.5C3.19266 64.2088 20.7912 81.8073 42.5 81.8073C64.2088 81.8073 81.8073 64.2088 81.8073 42.5C81.8073 20.7912 64.2088 3.19266 42.5 3.19266C20.7912 3.19266 3.19266 20.7912 3.19266 42.5Z" fill="#83781B"/>
<path d="M112.152 45.112H103.752L102.096 49H98.88L106.44 32.2H109.512L117.096 49H113.832L112.152 45.112ZM111.12 42.664L107.952 35.32L104.808 42.664H111.12ZM119.233 32.2H122.353V46.36H131.137V49H119.233V32.2ZM135.437 34.84H129.869V32.2H144.125V34.84H138.557V49H135.437V34.84ZM146.467 32.2H149.587V49H146.467V32.2ZM169.059 32.2V49H166.491L157.227 37.624V49H154.131V32.2H156.699L165.963 43.576V32.2H169.059Z" fill="#83781B"/>
<path d="M180.809 43.072V49H177.689V43.12L171.089 32.2H174.425L179.345 40.384L184.313 32.2H187.385L180.809 43.072ZM199.316 45.112H190.916L189.26 49H186.044L193.604 32.2H196.676L204.26 49H200.996L199.316 45.112ZM198.284 42.664L195.116 35.32L191.972 42.664H198.284ZM213.309 32.2C214.765 32.2 216.029 32.44 217.101 32.92C218.189 33.4 219.021 34.088 219.597 34.984C220.173 35.88 220.461 36.944 220.461 38.176C220.461 39.392 220.173 40.456 219.597 41.368C219.021 42.264 218.189 42.952 217.101 43.432C216.029 43.912 214.765 44.152 213.309 44.152H209.517V49H206.397V32.2H213.309ZM213.165 41.512C214.525 41.512 215.557 41.224 216.261 40.648C216.965 40.072 217.317 39.248 217.317 38.176C217.317 37.104 216.965 36.28 216.261 35.704C215.557 35.128 214.525 34.84 213.165 34.84H209.517V41.512H213.165ZM234.568 49L231.136 44.08C230.992 44.096 230.776 44.104 230.488 44.104H226.696V49H223.576V32.2H230.488C231.944 32.2 233.208 32.44 234.28 32.92C235.368 33.4 236.2 34.088 236.776 34.984C237.352 35.88 237.64 36.944 237.64 38.176C237.64 39.44 237.328 40.528 236.704 41.44C236.096 42.352 235.216 43.032 234.064 43.48L237.928 49H234.568ZM234.496 38.176C234.496 37.104 234.144 36.28 233.44 35.704C232.736 35.128 231.704 34.84 230.344 34.84H226.696V41.536H230.344C231.704 41.536 232.736 41.248 233.44 40.672C234.144 40.08 234.496 39.248 234.496 38.176ZM252.027 45.112H243.627L241.971 49H238.755L246.315 32.2H249.387L256.971 49H253.707L252.027 45.112ZM250.995 42.664L247.827 35.32L244.683 42.664H250.995ZM264.892 41.968L262.228 44.704V49H259.108V32.2H262.228V40.816L270.532 32.2H274.036L266.98 39.712L274.468 49H270.82L264.892 41.968Z" fill="#C08D40"/>
<defs>
<clipPath id="clip0">
<rect width="70" height="70" fill="white" transform="translate(7 7)"/>
</clipPath>
</defs>
</svg>
