<svg width="282" height="85" viewBox="0 0 282 85" fill="none" xmlns="http://www.w3.org/2000/svg">
<g clip-path="url(#clip0)">
<path d="M76.2193 40.8994L66.5139 37.5031C62.641 36.1473 58.3847 36.419 54.7151 38.2556C51.0462 40.0928 48.2777 43.3376 47.0422 47.2506L44.5028 55.2925L42.0027 57.1673V40.3731C41.9998 38.1349 43.1192 36.0436 44.983 34.8046L43.6882 32.8632C41.175 34.5352 39.6661 37.3544 39.6695 40.3731V42.6842L38.1611 41.1757L36.5114 42.8255L39.6695 45.9837V71.6127L37.3363 70.4461V68.0461C37.3357 62.1774 34.5143 56.666 29.7533 53.2343C24.9918 49.8032 18.8717 48.8696 13.3041 50.7261L7.80261 52.5598C7.32355 52.7176 7 53.1642 7 53.6684C7 54.1725 7.32355 54.6192 7.80261 54.777L9.05181 55.1934C15.0398 57.1843 20.6273 60.2229 25.5535 64.1673L35.4405 72.077C35.5072 72.1237 35.5795 72.163 35.6553 72.1938L35.6479 72.2092L39.6695 74.2218V77.0006H42.0027V60.0839L46.202 56.9337L46.1895 56.9177C46.2373 56.8898 46.2835 56.8591 46.3273 56.8255C53.7149 49.4614 63.3359 44.7555 73.6839 43.4447L75.9789 43.1581C76.5161 43.0904 76.9359 42.662 76.9934 42.1236C77.0509 41.5853 76.7302 41.0783 76.2193 40.8994Z" fill="#C08D40"/>
<path d="M51.8823 16.8822L51.3355 8.0963C51.3007 7.54372 50.8826 7.09141 50.3341 7.01337C49.7872 6.94045 49.2626 7.25775 49.0735 7.77672L45.3002 18.3371C43.8893 22.282 43.1681 26.4405 43.1693 30.6304V33.8353C43.1693 34.307 43.4535 34.7325 43.8893 34.9131C44.325 35.0931 44.8269 34.9934 45.1607 34.6602C49.8465 29.9724 52.2947 23.4982 51.8823 16.8822Z" fill="#E0B51A"/>
<path d="M24.425 22.4657L16.7059 19.8994C16.3072 19.7661 15.8674 19.8578 15.5547 20.1392C15.2426 20.4212 15.1058 20.849 15.1976 21.2598L16.4809 27.0487C18.5356 36.4942 26.9177 43.2145 36.5838 43.1672H37.3363C37.9805 43.1672 38.5029 42.6448 38.5029 42.0006C38.5103 33.1355 32.8368 25.2633 24.425 22.4657Z" fill="#E0B51A"/>
<path d="M30.1612 38.034C25.6907 35.2826 22.0263 31.3997 19.537 26.7781L15.8577 19.9421C15.3491 20.1615 15.0705 20.714 15.1975 21.2535L16.4809 27.0424C18.5333 36.4908 26.916 43.214 36.5838 43.1672H37.3363C37.6017 43.1627 37.8569 43.0664 38.0591 42.8944L30.1612 38.034Z" fill="#D5961C"/>
<path d="M55.0894 46.3169C52.6314 48.072 50.6884 50.4532 49.462 53.2132L48.9225 54.4266C55.9256 48.4235 64.5339 44.6045 73.6838 43.4424L75.9065 43.1672H64.924C61.3975 43.1661 57.9592 44.2678 55.0894 46.3169Z" fill="#D5961C"/>
<path d="M36.7809 72.7771L36.7575 72.649C34.4374 59.8863 22.8238 50.9585 9.8943 51.9987L9.35144 52.042L7.80261 52.5587C7.32355 52.7165 7 53.1631 7 53.6673C7 54.1714 7.32355 54.6181 7.80261 54.7753L9.05181 55.1923C15.0398 57.1838 20.6273 60.2224 25.5535 64.1673L35.4405 72.077C35.5072 72.1237 35.5795 72.163 35.6553 72.1938L35.6479 72.2092L36.7809 72.7771Z" fill="#D5961C"/>
</g>
<path d="M85 42.5C85 65.9721 65.9721 85 42.5 85C19.0279 85 0 65.9721 0 42.5C0 19.0279 19.0279 0 42.5 0C65.9721 0 85 19.0279 85 42.5ZM3.19266 42.5C3.19266 64.2088 20.7912 81.8073 42.5 81.8073C64.2088 81.8073 81.8073 64.2088 81.8073 42.5C81.8073 20.7912 64.2088 3.19266 42.5 3.19266C20.7912 3.19266 3.19266 20.7912 3.19266 42.5Z" fill="#83781B"/>
<path d="M112.152 45.112H103.752L102.096 49H98.88L106.44 32.2H109.512L117.096 49H113.832L112.152 45.112ZM111.12 42.664L107.952 35.32L104.808 42.664H111.12ZM119.233 32.2H122.353V46.36H131.137V49H119.233V32.2ZM135.437 34.84H129.869V32.2H144.125V34.84H138.557V49H135.437V34.84ZM146.467 32.2H149.587V49H146.467V32.2ZM169.059 32.2V49H166.491L157.227 37.624V49H154.131V32.2H156.699L165.963 43.576V32.2H169.059Z" fill="#83781B"/>
<path d="M187.442 43.072V49H184.322V43.12L177.721 32.2H181.058L185.978 40.384L190.946 32.2H194.018L187.442 43.072ZM205.949 45.112H197.549L195.893 49H192.677L200.237 32.2H203.309L210.893 49H207.629L205.949 45.112ZM204.917 42.664L201.749 35.32L198.605 42.664H204.917ZM219.941 32.2C221.397 32.2 222.661 32.44 223.733 32.92C224.821 33.4 225.653 34.088 226.229 34.984C226.805 35.88 227.093 36.944 227.093 38.176C227.093 39.392 226.805 40.456 226.229 41.368C225.653 42.264 224.821 42.952 223.733 43.432C222.661 43.912 221.397 44.152 219.941 44.152H216.149V49H213.029V32.2H219.941ZM219.797 41.512C221.157 41.512 222.189 41.224 222.893 40.648C223.597 40.072 223.949 39.248 223.949 38.176C223.949 37.104 223.597 36.28 222.893 35.704C222.189 35.128 221.157 34.84 219.797 34.84H216.149V41.512H219.797ZM241.201 49L237.769 44.08C237.625 44.096 237.409 44.104 237.121 44.104H233.329V49H230.209V32.2H237.121C238.577 32.2 239.841 32.44 240.913 32.92C242.001 33.4 242.833 34.088 243.409 34.984C243.985 35.88 244.273 36.944 244.273 38.176C244.273 39.44 243.961 40.528 243.337 41.44C242.729 42.352 241.849 43.032 240.697 43.48L244.561 49H241.201ZM241.129 38.176C241.129 37.104 240.777 36.28 240.073 35.704C239.369 35.128 238.337 34.84 236.977 34.84H233.329V41.536H236.977C238.337 41.536 239.369 41.248 240.073 40.672C240.777 40.08 241.129 39.248 241.129 38.176ZM258.66 45.112H250.26L248.604 49H245.388L252.948 32.2H256.02L263.604 49H260.34L258.66 45.112ZM257.628 42.664L254.46 35.32L251.316 42.664H257.628ZM271.524 41.968L268.86 44.704V49H265.74V32.2H268.86V40.816L277.164 32.2H280.668L273.612 39.712L281.1 49H277.452L271.524 41.968Z" fill="#C08D40"/>
<defs>
<clipPath id="clip0">
<rect width="70" height="70" fill="white" transform="translate(7 7)"/>
</clipPath>
</defs>
</svg>
