<svg width="50" height="50" viewBox="0 0 50 50" fill="none" xmlns="http://www.w3.org/2000/svg">
<g clip-path="url(#clip0)">
<path d="M49.5596 9.93359L34.3956 24.9999L49.5596 40.0662C49.8337 39.4933 50 38.8599 50 38.1835V11.8163C50 11.1398 49.8337 10.5065 49.5596 9.93359Z" fill="#83781B"/>
<path d="M45.6055 7.42188H4.3945C3.71803 7.42188 3.08473 7.58818 2.51178 7.8623L21.8929 27.1458C23.6066 28.8595 26.3933 28.8595 28.107 27.1458L47.4882 7.8623C46.9152 7.58818 46.2819 7.42188 45.6055 7.42188Z" fill="#83781B"/>
<path d="M0.44043 9.93359C0.166309 10.5065 0 11.1398 0 11.8163V38.1835C0 38.86 0.166309 39.4934 0.44043 40.0662L15.6044 24.9999L0.44043 9.93359Z" fill="#83781B"/>
<path d="M32.3242 27.0715L30.1784 29.2173C27.323 32.0727 22.6768 32.0727 19.8215 29.2173L17.6758 27.0715L2.51178 42.1378C3.08473 42.412 3.71803 42.5783 4.3945 42.5783H45.6055C46.2819 42.5783 46.9152 42.412 47.4882 42.1378L32.3242 27.0715Z" fill="#83781B"/>
</g>
<defs>
<clipPath id="clip0">
<rect width="50" height="50" fill="white"/>
</clipPath>
</defs>
</svg>
