<svg width="50" height="50" viewBox="0 0 50 50" fill="none" xmlns="http://www.w3.org/2000/svg">
<g clip-path="url(#clip0)">
<path d="M48.6391 36.695L41.6615 29.7173C39.1694 27.2253 34.933 28.2222 33.9362 31.4617C33.1886 33.7046 30.6966 34.9506 28.4538 34.4521C23.4697 33.2061 16.7413 26.7269 15.4953 21.4937C14.7477 19.2507 16.2429 16.7587 18.4857 16.0112C21.7253 15.0144 22.7221 10.778 20.2301 8.28596L13.2525 1.30831C11.2588 -0.436103 8.26842 -0.436103 6.52401 1.30831L1.78918 6.04314C-2.94565 11.0272 2.28758 24.2349 14.0001 35.9474C25.7125 47.6598 38.9202 53.1424 43.9043 48.1582L48.6391 43.4234C50.3836 41.4298 50.3836 38.4394 48.6391 36.695Z" fill="#83781B"/>
</g>
<defs>
<clipPath id="clip0">
<rect width="50" height="50" fill="white"/>
</clipPath>
</defs>
</svg>
